<svg width="22" height="22" viewBox="0 0 22 22" fill="none" xmlns="http://www.w3.org/2000/svg">
<path fill-rule="evenodd" clip-rule="evenodd" d="M5.72944 20.1038C7.0317 20.3848 8.7375 20.5 11 20.5C13.2618 20.5 14.9673 20.3848 16.2695 20.1038C17.5547 19.8265 18.3438 19.4092 18.8767 18.8763C19.4096 18.3433 19.8268 17.5542 20.104 16.2689C20.3849 14.9668 20.5 13.2615 20.5 11C20.5 8.73882 20.3849 7.03368 20.104 5.73164C19.8268 4.44646 19.4096 3.65726 18.8766 3.12418C18.3437 2.59112 17.5546 2.17377 16.2694 1.89635C14.9672 1.61529 13.2618 1.5 11 1.5C8.73754 1.5 7.03177 1.61529 5.72954 1.89635C4.44419 2.17377 3.65524 2.59112 3.1225 3.12408C2.58974 3.65707 2.17275 4.4462 1.89567 5.73144C1.61496 7.03355 1.5 8.73874 1.5 11C1.5 13.2616 1.61496 14.9669 1.89567 16.2691C2.17275 17.5544 2.58973 18.3435 3.12245 18.8764C3.65514 19.4092 4.44405 19.8265 5.72944 20.1038ZM0 11C0 20.165 1.83099 22 11 22C20.1665 22 22 20.165 22 11C22 1.83638 20.1665 0 11 0C1.83099 0 0 1.83638 0 11Z" fill="#313542"/>
<path d="M8 4C8 3.44772 8.44772 3 9 3H13C13.5523 3 14 3.44772 14 4V9H17L11 16L5 9H8V4Z" fill="#00BA6C"/>
<path fill-rule="evenodd" clip-rule="evenodd" d="M6.81927 12H5L11 19.103L17 12H15.1807L11 17.103L6.81927 12Z" fill="#00BA6C"/>
</svg>
